<svg width="80" height="80" viewBox="0 0 80 80" fill="none" xmlns="http://www.w3.org/2000/svg">
  <defs>
    <linearGradient id="bgMaya" x1="10" y1="10" x2="70" y2="70" gradientUnits="userSpaceOnUse">
      <stop stop-color="#E7F6FF"/>
      <stop offset="1" stop-color="#D4EEFF"/>
    </linearGradient>
  </defs>
  <circle cx="40" cy="40" r="36" fill="url(#bgMaya)"/>
  <circle cx="40" cy="35" r="11.5" fill="#F4CDB0"/>
  <path d="M27 37C27 27 33.5 20 40 20C46.5 20 53 27 53 37V40H27V37Z" fill="#2B587A"/>
  <path d="M23 62C23 52 31 44 41 44H39C49 44 57 52 57 62V66H23V62Z" fill="#4F84B2"/>
  <circle cx="35.8" cy="35.2" r="1.2" fill="#5A3F49"/>
  <circle cx="44.2" cy="35.2" r="1.2" fill="#5A3F49"/>
  <path d="M36.5 40C38 41.2 42 41.2 43.5 40" stroke="#B86D76" stroke-width="1.2" stroke-linecap="round"/>
</svg>
